<?xml version="1.0" encoding="UTF-8"?>
<!DOCTYPE svg PUBLIC "-//W3C//DTD SVG 1.1//EN" "http://www.w3.org/Graphics/SVG/1.1/DTD/svg11.dtd">
<!-- Creator: CorelDRAW X7 -->
<svg xmlns="http://www.w3.org/2000/svg" xml:space="preserve" width="210mm" height="297mm" version="1.1" style="shape-rendering:geometricPrecision; text-rendering:geometricPrecision; image-rendering:optimizeQuality; fill-rule:evenodd; clip-rule:evenodd"
viewBox="0 0 21000 29700"
 xmlns:xlink="http://www.w3.org/1999/xlink">
 <defs>
  <style type="text/css">
   <![CDATA[
    .str0 {stroke:#FEFEFE;stroke-width:35.28}
    .fil0 {fill:none}
    .fil1 {fill:none;fill-rule:nonzero}
    .fil2 {fill:#009846;fill-rule:nonzero}
    .fil3 {fill:#393185;fill-rule:nonzero}
   ]]>
  </style>
    <clipPath id="id0">
     <rect x="13547" y="7390" width="1475" height="1099"/>
    </clipPath>
    <clipPath id="id1">
     <path d="M13547 8489l1474 0 0 -1099 -1474 0 0 1099z"/>
    </clipPath>
    <clipPath id="id2">
     <rect x="13547" y="7390" width="1475" height="1099"/>
    </clipPath>
 </defs>
 <g id="Layer_x0020_1">
  <metadata id="CorelCorpID_0Corel-Layer"/>
  <g id="_839907600">
   <g style="clip-path:url(#id0)">
   </g>
   <g style="clip-path:url(#id1)">
    <image x="13547" y="7390" width="1475" height="1099" xlink:href="dk logo_Images\dk logo_ImgID1.png"/>
   </g>
   <g style="clip-path:url(#id2)">
   </g>
   <g>
    <path class="fil0" d="M14292 7402c402,7 724,252 720,549 -5,296 -335,532 -737,525 -402,-6 -724,-252 -719,-548 5,-297 334,-532 736,-526z"/>
    <g>
     <path class="fil1 str0" d="M13863 7906c7,-11 15,-20 23,-30l1 0c13,-14 27,-26 41,-36 14,-11 29,-20 45,-27l0 0c15,-7 31,-12 46,-16 16,-4 32,-7 49,-7 15,-1 31,-1 47,1 16,2 32,5 47,9 15,5 30,10 44,17 2,0 3,1 5,2l1 -209 1 -1c0,-5 1,-9 2,-13 3,-5 6,-10 10,-13l0 0c3,-3 7,-5 10,-6 5,-2 9,-3 13,-3 5,1 9,1 13,3 4,2 8,4 11,7l0 0c4,3 7,8 9,13 1,4 2,8 2,13l0 1 -1 258c4,6 7,12 11,18 4,9 8,19 11,30 2,10 4,21 6,32 1,11 2,23 2,35 0,12 -1,24 -2,36 -2,12 -4,25 -6,37 -3,12 -7,25 -10,36 -4,10 -8,20 -12,30l-1 99 0 1c0,4 -1,9 -3,13 -2,5 -5,9 -9,12l0 0c-4,3 -7,5 -11,7 -5,1 -9,2 -13,2 -4,0 -8,-1 -12,-3 -4,-1 -8,-3 -11,-6l0 0c-4,-4 -7,-8 -9,-13 -2,-4 -3,-9 -3,-13l0 -1 0 -8 -2 1 -2 2c-15,9 -30,16 -45,23 -16,6 -31,11 -47,14l0 0c-15,3 -30,5 -44,6 -15,0 -29,0 -43,-1l0 0c-13,-2 -26,-4 -39,-7 -12,-3 -24,-7 -35,-11 -11,-5 -21,-10 -30,-15 -9,-6 -17,-12 -24,-19l0 0c-9,-9 -18,-18 -25,-28 -8,-9 -15,-20 -20,-31 -6,-10 -11,-21 -15,-33 -4,-11 -7,-23 -10,-35l0 0c-2,-12 -3,-24 -4,-36 0,-11 0,-23 2,-35 1,-13 3,-24 6,-36 3,-11 7,-22 12,-34 5,-11 11,-22 18,-32zm272 266c12,-4 23,-10 35,-18l0 0c5,-3 9,-5 12,-9 4,-3 8,-7 11,-11l1 0c3,-4 7,-9 10,-14 3,-4 5,-7 7,-11l-1 -210c-7,-5 -15,-9 -23,-13 -12,-6 -23,-11 -35,-15l0 0c-13,-4 -25,-7 -37,-8 -12,-2 -25,-3 -37,-3l0 0c-13,1 -25,2 -38,5 -12,3 -24,7 -36,12l0 0c-12,5 -23,12 -34,20 -11,8 -22,17 -33,28l0 0c-5,6 -11,13 -15,20 -5,6 -8,14 -12,22l0 0c-3,7 -6,15 -8,23 -3,9 -4,17 -5,25l0 0c-1,9 -1,18 -1,26 0,8 1,17 3,26l0 0c1,8 3,16 6,24 3,8 6,16 10,23l0 0c4,8 9,15 14,22 5,7 11,13 17,19 4,3 8,6 13,10 6,3 13,6 21,9 7,3 16,6 25,8 9,2 19,4 29,5 11,1 21,1 32,1 11,-1 23,-3 34,-5 12,-2 23,-6 35,-11zm523 102c0,-5 1,-9 3,-14l0 0c3,-6 5,-12 6,-19 1,-7 1,-14 0,-21l0 0c0,-8 -2,-16 -5,-25 -3,-9 -6,-18 -11,-27 -5,-9 -10,-18 -16,-28 -6,-9 -13,-19 -21,-28 -15,-19 -33,-36 -52,-53l0 0c-10,-9 -19,-17 -29,-24 -10,-8 -20,-15 -31,-21l0 0c-10,-6 -20,-12 -31,-17 -10,-5 -20,-10 -30,-13l0 0c-10,-4 -20,-7 -29,-9 -1,0 -2,0 -3,0 0,7 -1,13 -1,20 -1,15 -2,29 -3,43l0 0c-2,15 -3,28 -4,40 -1,13 -3,26 -4,37l0 0c-1,13 -2,24 -3,33 -2,12 -3,21 -4,28l0 0c-1,11 -2,19 -3,24 0,4 -1,9 -2,17 -2,8 -2,12 -2,12l0 1c-1,5 -2,10 -4,14l0 0c-2,5 -6,9 -11,13l0 -1c-4,3 -8,4 -12,5 -4,1 -8,1 -13,0l0 0c-4,-1 -8,-2 -11,-4l0 0c-4,-2 -7,-4 -10,-7 -3,-3 -5,-7 -7,-12 -2,-4 -3,-8 -3,-13l0 -1c0,0 0,-3 1,-7l0 0 1 -10 0 0 1 -1c1,-10 3,-24 4,-38l0 0c2,-10 3,-20 4,-28 0,-6 2,-16 3,-32 1,-13 3,-24 4,-36 1,-13 2,-26 3,-39 1,-14 2,-28 3,-42 1,-6 1,-11 1,-17 -4,-2 -7,-4 -10,-8l-1 -1c-2,-2 -3,-5 -5,-8 -1,-3 -2,-7 -3,-10l0 0c0,-3 0,-6 0,-9 0,-3 0,-7 1,-10l0 -1c2,-6 6,-11 10,-14 3,-3 7,-5 11,-5 1,-31 2,-61 1,-91 0,-17 -1,-35 -2,-54 -1,-17 -2,-35 -4,-52 -1,-17 -4,-33 -6,-48 -3,-15 -6,-29 -9,-42l0 0c-2,-5 -2,-10 -1,-14 0,-6 2,-10 5,-15l0 0c2,-3 5,-7 9,-9l0 0c3,-3 7,-5 12,-6l0 0c4,-1 8,-1 12,-1 4,0 8,2 12,4l0 0c5,2 9,5 12,9 3,4 5,8 6,13l0 0c4,16 8,32 11,48 3,17 5,34 7,52 2,18 3,36 4,54 1,18 2,36 2,56 0,19 0,37 0,57 0,9 0,19 0,28 10,-1 17,-2 22,-3 14,-2 28,-3 43,-5 12,-2 24,-4 36,-5 12,-2 22,-4 31,-6l0 0c10,-2 18,-4 26,-6 8,-2 16,-5 24,-8l0 0c7,-3 14,-6 21,-10 8,-4 15,-9 22,-14l2 -1c5,-3 11,-5 17,-5l0 0c6,-1 13,1 19,4 4,3 8,7 11,11 3,4 5,9 6,14l1 1c1,6 0,13 -3,19 -2,6 -6,11 -11,14l-1 1c-8,5 -15,10 -24,15 -8,5 -16,9 -24,12 -8,4 -17,7 -24,10 -9,3 -17,6 -26,8 -9,2 -18,4 -27,6 -5,1 -9,2 -14,3l1 0 0 0c12,8 24,16 36,24 12,9 23,18 34,28 11,9 22,20 32,30 10,11 20,22 28,33l0 0c10,12 18,23 25,35 7,12 14,24 20,36 5,12 10,25 14,37 3,13 6,25 7,38 2,13 2,26 0,38 -1,13 -4,25 -9,37l-1 3c-2,4 -5,8 -8,11 -4,3 -9,6 -14,7l0 0c-4,1 -9,1 -13,1 -3,0 -7,-1 -11,-3l0 0c-4,-1 -8,-4 -11,-7 -3,-3 -5,-6 -7,-10l0 0c-3,-5 -4,-10 -3,-16z"/>
     <path id="1" class="fil2" d="M13863 7906c7,-11 15,-20 23,-30l1 0c13,-14 27,-26 41,-36 14,-11 29,-20 45,-27l0 0c15,-7 31,-12 46,-16 16,-4 32,-7 49,-7 15,-1 31,-1 47,1 16,2 32,5 47,9 15,5 30,10 44,17 2,0 3,1 5,2l1 -209 1 -1c0,-5 1,-9 2,-13 3,-5 6,-10 10,-13l0 0c3,-3 7,-5 10,-6 5,-2 9,-3 13,-3 5,1 9,1 13,3 4,2 8,4 11,7l0 0c4,3 7,8 9,13 1,4 2,8 2,13l0 1 -1 258c4,6 7,12 11,18 4,9 8,19 11,30 2,10 4,21 6,32 1,11 2,23 2,35 0,12 -1,24 -2,36 -2,12 -4,25 -6,37 -3,12 -7,25 -10,36 -4,10 -8,20 -12,30l-1 99 0 1c0,4 -1,9 -3,13 -2,5 -5,9 -9,12l0 0c-4,3 -7,5 -11,7 -5,1 -9,2 -13,2 -4,0 -8,-1 -12,-3 -4,-1 -8,-3 -11,-6l0 0c-4,-4 -7,-8 -9,-13 -2,-4 -3,-9 -3,-13l0 -1 0 -8 -2 1 -2 2c-15,9 -30,16 -45,23 -16,6 -31,11 -47,14l0 0c-15,3 -30,5 -44,6 -15,0 -29,0 -43,-1l0 0c-13,-2 -26,-4 -39,-7 -12,-3 -24,-7 -35,-11 -11,-5 -21,-10 -30,-15 -9,-6 -17,-12 -24,-19l0 0c-9,-9 -18,-18 -25,-28 -8,-9 -15,-20 -20,-31 -6,-10 -11,-21 -15,-33 -4,-11 -7,-23 -10,-35l0 0c-2,-12 -3,-24 -4,-36 0,-11 0,-23 2,-35 1,-13 3,-24 6,-36 3,-11 7,-22 12,-34 5,-11 11,-22 18,-32zm272 266c12,-4 23,-10 35,-18l0 0c5,-3 9,-5 12,-9 4,-3 8,-7 11,-11l1 0c3,-4 7,-9 10,-14 3,-4 5,-7 7,-11l-1 -210c-7,-5 -15,-9 -23,-13 -12,-6 -23,-11 -35,-15l0 0c-13,-4 -25,-7 -37,-8 -12,-2 -25,-3 -37,-3l0 0c-13,1 -25,2 -38,5 -12,3 -24,7 -36,12l0 0c-12,5 -23,12 -34,20 -11,8 -22,17 -33,28l0 0c-5,6 -11,13 -15,20 -5,6 -8,14 -12,22l0 0c-3,7 -6,15 -8,23 -3,9 -4,17 -5,25l0 0c-1,9 -1,18 -1,26 0,8 1,17 3,26l0 0c1,8 3,16 6,24 3,8 6,16 10,23l0 0c4,8 9,15 14,22 5,7 11,13 17,19 4,3 8,6 13,10 6,3 13,6 21,9 7,3 16,6 25,8 9,2 19,4 29,5 11,1 21,1 32,1 11,-1 23,-3 34,-5 12,-2 23,-6 35,-11zm523 102c0,-5 1,-9 3,-14l0 0c3,-6 5,-12 6,-19 1,-7 1,-14 0,-21l0 0c0,-8 -2,-16 -5,-25 -3,-9 -6,-18 -11,-27 -5,-9 -10,-18 -16,-28 -6,-9 -13,-19 -21,-28 -15,-19 -33,-36 -52,-53l0 0c-10,-9 -19,-17 -29,-24 -10,-8 -20,-15 -31,-21l0 0c-10,-6 -20,-12 -31,-17 -10,-5 -20,-10 -30,-13l0 0c-10,-4 -20,-7 -29,-9 -1,0 -2,0 -3,0 0,7 -1,13 -1,20 -1,15 -2,29 -3,43l0 0c-2,15 -3,28 -4,40 -1,13 -3,26 -4,37l0 0c-1,13 -2,24 -3,33 -2,12 -3,21 -4,28l0 0c-1,11 -2,19 -3,24 0,4 -1,9 -2,17 -2,8 -2,12 -2,12l0 1c-1,5 -2,10 -4,14l0 0c-2,5 -6,9 -11,13l0 -1c-4,3 -8,4 -12,5 -4,1 -8,1 -13,0l0 0c-4,-1 -8,-2 -11,-4l0 0c-4,-2 -7,-4 -10,-7 -3,-3 -5,-7 -7,-12 -2,-4 -3,-8 -3,-13l0 -1c0,0 0,-3 1,-7l0 0 1 -10 0 0 1 -1c1,-10 3,-24 4,-38l0 0c2,-10 3,-20 4,-28 0,-6 2,-16 3,-32 1,-13 3,-24 4,-36 1,-13 2,-26 3,-39 1,-14 2,-28 3,-42 1,-6 1,-11 1,-17 -4,-2 -7,-4 -10,-8l-1 -1c-2,-2 -3,-5 -5,-8 -1,-3 -2,-7 -3,-10l0 0c0,-3 0,-6 0,-9 0,-3 0,-7 1,-10l0 -1c2,-6 6,-11 10,-14 3,-3 7,-5 11,-5 1,-31 2,-61 1,-91 0,-17 -1,-35 -2,-54 -1,-17 -2,-35 -4,-52 -1,-17 -4,-33 -6,-48 -3,-15 -6,-29 -9,-42l0 0c-2,-5 -2,-10 -1,-14 0,-6 2,-10 5,-15l0 0c2,-3 5,-7 9,-9l0 0c3,-3 7,-5 12,-6l0 0c4,-1 8,-1 12,-1 4,0 8,2 12,4l0 0c5,2 9,5 12,9 3,4 5,8 6,13l0 0c4,16 8,32 11,48 3,17 5,34 7,52 2,18 3,36 4,54 1,18 2,36 2,56 0,19 0,37 0,57 0,9 0,19 0,28 10,-1 17,-2 22,-3 14,-2 28,-3 43,-5 12,-2 24,-4 36,-5 12,-2 22,-4 31,-6l0 0c10,-2 18,-4 26,-6 8,-2 16,-5 24,-8l0 0c7,-3 14,-6 21,-10 8,-4 15,-9 22,-14l2 -1c5,-3 11,-5 17,-5l0 0c6,-1 13,1 19,4 4,3 8,7 11,11 3,4 5,9 6,14l1 1c1,6 0,13 -3,19 -2,6 -6,11 -11,14l-1 1c-8,5 -15,10 -24,15 -8,5 -16,9 -24,12 -8,4 -17,7 -24,10 -9,3 -17,6 -26,8 -9,2 -18,4 -27,6 -5,1 -9,2 -14,3l1 0 0 0c12,8 24,16 36,24 12,9 23,18 34,28 11,9 22,20 32,30 10,11 20,22 28,33l0 0c10,12 18,23 25,35 7,12 14,24 20,36 5,12 10,25 14,37 3,13 6,25 7,38 2,13 2,26 0,38 -1,13 -4,25 -9,37l-1 3c-2,4 -5,8 -8,11 -4,3 -9,6 -14,7l0 0c-4,1 -9,1 -13,1 -3,0 -7,-1 -11,-3l0 0c-4,-1 -8,-4 -11,-7 -3,-3 -5,-6 -7,-10l0 0c-3,-5 -4,-10 -3,-16z"/>
    </g>
   </g>
   <path class="fil3" d="M13406 8089c5,-2 10,-3 15,-2 4,0 9,0 13,2 4,1 8,3 11,5 4,3 6,5 9,8 2,3 4,6 5,9 1,5 2,10 2,13 0,4 -1,7 -2,10 -1,3 -2,5 -3,7 -1,2 -2,4 -3,6 -1,1 -2,3 -2,4 0,1 1,3 3,4 -6,3 -11,3 -15,2 -4,-1 -7,-5 -8,-10 -1,-1 -1,-3 -1,-5 0,-2 0,-5 0,-7 1,-2 1,-4 1,-6 0,-2 0,-3 0,-4 -1,-3 -3,-5 -5,-6 -2,-1 -4,-1 -7,0 -2,0 -5,2 -6,4 -1,2 -2,4 -3,7 0,3 -1,6 0,9 0,4 1,7 2,10 1,3 2,6 4,9 1,3 3,5 6,8 2,2 4,4 7,6 3,1 6,2 10,3 3,0 7,0 11,-2 6,-2 10,-4 14,-7 3,-4 6,-7 8,-12 2,-4 4,-9 5,-14 1,-5 2,-10 3,-15 0,-5 1,-11 1,-16 1,-5 2,-10 3,-15 0,-5 2,-10 3,-14 2,-4 4,-8 7,-11 3,-3 7,-6 11,-7 2,-1 4,-1 6,-1 2,-1 5,0 7,1 2,1 4,2 6,5 2,3 4,7 6,12l19 56c1,5 2,9 3,12 1,3 2,6 2,9 0,3 0,5 -1,7 -1,1 -3,3 -6,3 -2,1 -4,1 -6,1 -2,-1 -4,-2 -5,-3 -2,-1 -4,-3 -5,-4 -2,-2 -3,-3 -5,-4 -1,-1 -3,-2 -4,-2 -1,-1 -2,0 -3,0 -1,0 -2,1 -2,2 -1,1 -2,3 -2,4 -1,-2 -2,-3 -3,-5 0,-2 -1,-4 0,-6 0,-2 0,-4 2,-6 1,-2 3,-3 5,-4 2,0 3,0 5,0 1,0 3,0 4,1 1,0 3,0 4,0 1,0 1,0 2,-1 0,-1 1,-2 0,-4 0,-2 0,-4 -2,-8l-9 -27c0,-2 -1,-4 -1,-5 -1,-2 -2,-4 -3,-5 -1,-2 -2,-3 -3,-3 -1,-1 -3,-1 -4,-1 -2,1 -3,2 -4,5 -1,2 -2,5 -3,9 0,4 -1,8 -1,12 -1,4 -1,9 -2,13 0,4 -1,7 -1,11 -1,8 -3,15 -5,23 -3,7 -6,14 -10,20 -3,7 -8,12 -14,16 -5,5 -12,8 -19,10 -5,1 -11,2 -16,3 -5,0 -10,0 -15,0 -5,-1 -9,-3 -14,-5 -4,-2 -8,-6 -12,-10 -3,-3 -5,-7 -6,-9 -1,-3 -2,-6 -3,-9 -1,-2 -1,-5 -2,-7 -1,-3 -1,-6 -2,-9 -1,-3 -2,-6 -3,-8 -1,-2 -2,-4 -3,-7 -1,-2 -2,-4 -3,-6 0,-2 0,-4 0,-7 0,-4 1,-8 2,-12 1,-5 3,-9 6,-13 3,-4 6,-7 10,-10 4,-3 8,-5 14,-7zm57 120c2,-2 6,-4 10,-6 4,-2 8,-4 13,-6 5,-2 10,-3 16,-3 6,-1 11,-1 17,1 6,1 12,4 18,8 6,4 12,10 17,17 1,1 2,3 4,5 1,2 2,5 3,8 2,3 3,5 3,9 1,3 2,6 1,9 0,3 -1,6 -2,9 -2,3 -4,6 -8,8 -3,3 -7,4 -11,5 -3,0 -7,-1 -10,-2 -3,-1 -6,-4 -8,-7 -2,-2 -3,-5 -4,-8 0,-2 0,-5 0,-7 0,-2 1,-3 1,-5 0,-1 0,-2 0,-3 -1,0 -2,0 -5,0 0,-2 1,-4 2,-6 1,-1 3,-2 4,-3 2,0 4,0 5,0 2,0 3,1 5,3 1,1 1,3 2,4 1,2 1,3 2,4 1,1 1,2 2,2 1,1 2,1 3,0 2,0 3,-1 3,-3 1,-1 1,-3 1,-5 -1,-2 -1,-4 -2,-6 -1,-3 -2,-5 -3,-6 -3,-5 -6,-8 -10,-10 -3,-2 -7,-3 -11,-3 -4,-1 -8,0 -12,1 -4,1 -8,2 -12,4 -4,2 -7,4 -11,7 -4,2 -8,5 -10,9 -2,3 -3,7 -4,11 -1,4 0,8 0,12 1,4 3,8 4,12 2,4 4,8 7,11 4,5 8,9 12,12 4,3 7,4 11,4 3,1 7,0 10,-1 0,3 0,7 -1,10 0,2 -1,5 -2,8 -2,2 -4,4 -7,6 -2,2 -4,3 -6,4 -3,1 -6,1 -9,1 -3,1 -6,0 -9,0 -3,-1 -6,-3 -9,-5 -3,-2 -7,-6 -9,-10 -2,-2 -3,-4 -4,-6 -1,-1 -2,-3 -3,-5 -1,-2 -2,-4 -3,-6 -2,-2 -4,-4 -6,-7 -3,-2 -5,-5 -7,-7 -2,-3 -4,-6 -6,-9 -1,-5 -2,-10 -2,-14 1,-5 2,-10 4,-14 2,-5 4,-9 7,-13 3,-3 6,-7 9,-10 4,-3 7,-6 10,-8zm150 52c2,-2 4,-3 6,-3 2,0 4,1 6,2 2,2 5,4 8,8 1,1 2,2 3,4 1,1 2,3 2,5 1,2 1,3 1,5 -1,2 -2,4 -4,5 -2,2 -4,3 -6,3 -2,0 -4,-1 -7,-3 -2,-1 -4,-3 -6,-5 -2,-3 -3,-5 -5,-8 -1,-2 -2,-4 -1,-7 0,-2 1,-4 3,-6zm-98 82l67 -54c-2,-4 -2,-7 -3,-10 0,-2 1,-4 2,-6 0,-1 2,-2 3,-2 2,0 4,2 6,4l24 30c2,2 4,5 4,7 1,3 0,4 -1,5 -1,1 -3,2 -5,1 -3,-1 -6,-3 -10,-5l-67 53c0,1 -1,2 -1,3 0,1 0,2 0,3 1,2 1,3 1,4 0,2 0,3 0,4 1,3 0,5 -1,6 -1,0 -3,1 -5,0 -2,0 -4,-2 -6,-3 -2,-2 -3,-3 -5,-5 -1,-1 -2,-3 -3,-5 -1,-2 -3,-4 -4,-5 -2,-2 -3,-4 -5,-6 -2,-1 -3,-3 -5,-5 -1,-1 -2,-3 -3,-5 0,-1 -1,-3 -1,-4 0,-2 0,-3 0,-5 0,-1 1,-2 2,-2 1,-1 2,-1 4,0 1,0 2,1 4,1 1,1 2,1 3,1 1,0 3,0 5,0zm63 21c6,-7 13,-13 20,-18 7,-4 15,-7 22,-9 8,-1 15,-1 22,1 7,1 14,4 20,10l24 21c5,4 8,7 10,10 2,4 3,6 3,9 1,2 0,5 -1,7 0,2 -2,4 -3,5 -2,3 -4,5 -7,6 -3,1 -6,2 -9,3 -4,0 -9,0 -14,-1 -3,-1 -5,-1 -8,-2 -4,-1 -7,-2 -11,-3 -3,-1 -7,-2 -11,-3 -5,-1 -9,-1 -13,-2 -4,0 -8,0 -12,1 -4,1 -8,2 -11,5 1,5 4,9 6,13 3,3 6,7 9,10 4,3 8,5 12,7 3,2 7,3 10,3 3,0 6,0 8,-1 3,0 4,-1 6,-3 1,3 2,5 2,8 1,2 1,5 0,8 0,3 -2,6 -4,9 -2,1 -3,3 -5,4 -2,2 -5,4 -7,5 -3,1 -6,2 -9,3 -3,0 -7,0 -10,-1 -4,-1 -8,-4 -12,-7 -2,-2 -4,-4 -5,-6 -2,-1 -4,-3 -5,-5 -1,-1 -3,-3 -5,-5 -1,-1 -3,-2 -5,-3 -2,-1 -4,-3 -6,-5 -3,-1 -5,-3 -8,-6 -3,-2 -6,-6 -7,-10 -2,-4 -3,-9 -3,-14 0,-4 0,-9 2,-15 1,-5 3,-10 5,-15 3,-5 6,-10 10,-14zm20 27c4,-4 9,-6 13,-6 5,-1 9,-1 14,-1 4,1 9,2 13,3 4,1 8,2 12,2 4,1 7,1 10,1 3,-1 6,-3 8,-6 2,-2 2,-4 2,-6 0,-2 0,-4 -2,-6 -1,-2 -2,-3 -4,-5 -2,-2 -4,-4 -6,-5 -4,-4 -8,-6 -12,-8 -4,-1 -8,-2 -12,-1 -4,0 -8,1 -11,3 -3,2 -6,4 -9,6 -3,3 -5,5 -8,8 -1,2 -3,4 -4,7 -2,3 -3,5 -3,8 -1,2 -1,4 -1,6zm68 88l44 -64c1,-2 2,-3 2,-5 0,-1 0,-3 0,-4 -1,-2 -1,-3 -2,-4 -1,-1 -1,-3 -1,-4 0,-2 0,-3 1,-4 0,-1 1,-2 3,-2 1,0 3,0 5,2l33 23c2,2 4,3 5,5 1,1 1,2 1,3 -1,1 -1,1 -3,2 -1,0 -2,0 -4,0 -2,0 -4,0 -6,0 -2,0 -3,0 -4,0 -2,1 -2,1 -3,3 3,1 5,2 8,2 2,0 4,0 7,-1 2,-1 5,-1 8,-1 3,-1 7,0 10,1 4,1 8,3 13,6 5,3 8,7 11,11 2,4 3,8 3,13 0,5 -3,11 -7,16l-40 59c-1,1 -1,3 -1,4 1,1 1,3 2,4 1,1 2,3 2,5 1,2 1,4 1,5 -1,1 -3,2 -5,3 -2,0 -5,-1 -9,-2 -1,0 -3,-1 -5,-2 -1,-1 -3,-2 -4,-4 -2,-1 -4,-3 -6,-4 -2,-1 -4,-3 -6,-4 -2,-2 -5,-3 -7,-5 -2,-2 -4,-4 -5,-6 -1,-2 -2,-4 -1,-6 0,-1 1,-3 2,-3 1,-1 3,-1 4,-1 2,0 4,1 6,1 2,0 -3,-2 6,-2l38 -55c2,-3 3,-5 2,-8 -1,-3 -3,-5 -6,-8 -3,-1 -5,-2 -7,-3 -2,0 -4,-1 -6,-1 -2,0 -5,-1 -7,-1 -2,-1 -5,-2 -8,-3l-40 58c0,1 0,2 1,3 1,1 1,3 2,4 1,2 1,3 1,5 1,2 1,3 0,4 0,1 -1,2 -2,2 -1,1 -3,1 -4,1 -1,0 -3,-1 -4,-1 -3,-1 -5,-2 -7,-4 -1,-1 -3,-2 -5,-4 -1,-1 -3,-2 -4,-3 -2,-1 -4,-2 -6,-4 -2,-1 -3,-2 -5,-3 -2,-1 -4,-3 -6,-5 -1,-1 -2,-3 -3,-4 0,-2 -1,-3 -1,-5 0,-1 1,-2 2,-3 1,-1 3,-1 5,-1 2,0 4,0 5,0 2,0 3,0 4,0 1,0 2,0 3,-1zm119 71l35 -72c0,-1 -1,-2 -2,-2 0,-1 -1,-2 -2,-3 -1,-1 -2,-2 -2,-4 0,-1 0,-2 0,-3 0,-1 0,-1 0,-2 1,-1 2,-1 3,-2 2,0 4,1 6,1 1,1 3,2 5,3 1,-2 1,-3 2,-5 0,-1 0,-2 0,-4 0,-1 -1,-2 -2,-3 -1,-1 -2,-2 -2,-3 -1,-1 -1,-2 -1,-3 0,-1 1,-2 2,-3 1,-1 3,-1 5,-1 2,0 4,0 6,0 2,0 5,0 8,0 3,0 5,0 8,0 2,-1 5,-1 7,-1 2,-1 3,-1 5,-1 2,-1 4,-1 5,-1 2,1 3,1 3,2 1,2 1,3 0,4 0,1 -1,2 -2,2 -2,1 -3,1 -4,2 -1,1 -2,2 -2,3 -1,2 -2,3 -3,5l-11 23c2,0 4,0 6,0 3,0 5,1 8,2 3,1 5,2 7,3 2,1 3,3 4,5 1,1 1,3 0,6 -1,2 -3,4 -4,5 -1,1 -2,2 -3,3 -2,1 -3,2 -4,3 -1,1 -1,3 -2,5 -1,2 -1,4 -1,7 -2,1 -5,1 -7,1 -2,0 -4,-1 -6,-2 -2,-1 -3,-3 -4,-4 -1,-2 -2,-4 -2,-6 0,-1 1,-3 1,-5 1,-1 2,-3 3,-5 1,-2 2,-3 4,-5 -1,0 -2,0 -3,-1 -1,0 -1,-1 -2,-1l-35 72c-1,1 -1,2 0,3 0,1 1,3 2,4 1,1 2,2 3,3 1,2 2,4 2,5 0,1 0,2 -1,3 -1,1 -3,2 -5,2 -1,0 -3,0 -5,0 -2,0 -4,-1 -6,-1 -1,-1 -4,-2 -6,-3 -2,-1 -5,-2 -8,-4 -3,-1 -6,-3 -9,-4 -2,-1 -4,-2 -6,-3 -1,-1 -3,-3 -4,-4 -2,-2 -3,-4 -3,-6 0,-1 1,-3 2,-4 1,0 2,-1 4,-1 3,1 5,1 8,0 2,-1 4,-3 5,-5zm116 -82c1,-2 2,-4 4,-5 1,-1 3,-2 6,-1 3,0 6,1 11,2 1,1 3,2 4,2 2,1 3,2 5,3 1,1 2,3 3,5 0,2 0,4 -1,6 -1,3 -2,4 -4,5 -2,1 -4,2 -7,1 -2,0 -5,0 -8,-1 -3,-1 -5,-3 -8,-4 -2,-2 -4,-3 -5,-6 -1,-2 -1,-4 0,-7zm-44 121l31 -81c-3,-3 -5,-5 -7,-7 -1,-2 -2,-4 -2,-6 0,-2 1,-3 2,-4 2,0 4,0 7,1l35 14c4,1 6,2 8,4 2,2 2,3 2,5 -1,1 -2,2 -5,3 -2,1 -6,1 -11,1l-31 79c0,1 0,2 1,3 0,1 1,2 1,3 1,1 2,2 3,3 1,1 2,2 2,4 2,2 2,3 2,5 -1,1 -2,2 -4,2 -2,1 -4,1 -7,1 -2,-1 -4,-1 -6,-2 -2,-1 -4,-2 -6,-3 -2,-1 -4,-1 -6,-2 -3,-1 -5,-2 -7,-2 -3,-1 -5,-2 -7,-3 -2,0 -4,-1 -5,-2 -1,-1 -2,-3 -3,-4 -1,-1 -2,-2 -2,-4 -1,-1 -1,-2 0,-3 0,-1 2,-1 4,-2 1,0 2,0 3,0 1,0 3,-1 4,-1 1,-1 2,-1 4,-2zm76 23l25 -78c1,-1 1,-3 0,-5 -1,-1 -3,-3 -4,-4 -2,-2 -4,-4 -6,-6 -2,-2 -3,-3 -3,-5 0,-2 0,-4 1,-5 2,-1 3,-2 6,-2 2,1 3,1 5,2 1,1 3,1 4,1 -2,-2 -3,-4 -4,-6 -1,-2 -2,-4 -3,-6 0,-2 0,-4 0,-6 0,-3 1,-5 2,-8 2,-6 5,-10 11,-11 5,-2 12,-1 20,2 2,1 4,2 6,3 2,1 4,2 7,4 2,1 5,3 8,4 3,1 5,2 8,2 3,0 6,0 9,-1 1,1 2,2 2,4 1,1 1,3 1,5 -1,1 -1,3 -2,5 -1,3 -2,5 -4,7 -2,2 -5,3 -7,4 -3,1 -6,1 -9,1 -3,0 -5,0 -8,0 -3,-1 -5,-2 -7,-3 -2,-1 -4,-2 -5,-3 -1,-1 -3,-2 -4,-3 -2,-1 -3,-1 -4,-1 -1,0 -2,1 -3,2 0,2 0,3 0,4 1,1 1,3 2,4 1,1 2,2 2,3 3,1 7,2 10,3 3,2 7,3 10,4 3,1 5,3 7,4 3,1 4,3 5,4 0,2 0,3 -1,5 -1,1 -3,3 -6,4 -1,0 -3,1 -4,1 -2,1 -4,1 -6,1 -2,1 -4,1 -6,2l-25 77c0,2 0,4 1,5 1,1 1,2 3,3 1,1 2,3 3,4 2,2 2,4 1,5 0,2 -1,3 -3,4 -2,1 -4,2 -7,2 -1,0 -3,0 -5,-1 -2,-1 -4,-2 -7,-3 -2,-1 -4,-2 -7,-2 -2,-1 -4,-2 -6,-2 -2,-1 -4,-1 -6,-2 -2,0 -5,-1 -7,-3 -1,0 -2,-1 -3,-2 -1,-2 -2,-3 -2,-5 -1,-1 0,-3 0,-4 1,-1 2,-2 4,-2 1,0 3,-1 4,-1 2,0 3,-1 5,-2 1,0 2,-1 2,-3z"/>
   <path class="fil3" d="M14044 8515c0,-3 1,-4 3,-6 1,-1 3,-2 6,-2 3,0 7,1 11,2 2,0 3,1 5,1 1,1 3,2 5,3 1,1 2,2 3,4 1,2 1,4 0,7 -1,2 -2,4 -4,5 -2,1 -4,2 -6,2 -3,0 -5,0 -8,-1 -3,-1 -6,-2 -9,-3 -2,-1 -4,-3 -5,-5 -2,-2 -2,-4 -1,-7zm-31 125l22 -84c-3,-2 -6,-4 -8,-6 -1,-2 -2,-4 -2,-6 -1,-2 0,-3 2,-4 1,-1 3,-1 6,0l37 10c3,1 6,2 8,4 2,1 2,3 2,4 0,2 -1,3 -4,4 -2,1 -6,1 -11,1l-22 83c0,1 0,2 0,2 1,1 2,2 2,3 1,1 2,2 3,3 1,1 2,2 3,3 2,2 3,4 2,5 0,2 -2,3 -3,3 -2,1 -5,1 -7,1 -3,0 -5,0 -7,-1 -2,0 -4,-1 -6,-2 -2,0 -4,-1 -6,-2 -3,0 -5,-1 -7,-1 -3,0 -5,-1 -7,-1 -2,-1 -4,-2 -6,-3 -1,-1 -2,-2 -3,-3 -1,-1 -2,-2 -3,-3 0,-1 0,-3 0,-4 1,-1 2,-1 4,-2 1,0 2,0 3,-1 1,0 2,-1 4,-1 1,-1 2,-2 4,-2zm67 -25c1,-3 2,-7 3,-12 1,-4 3,-9 5,-13 2,-5 5,-10 9,-14 3,-4 8,-8 13,-11 5,-4 11,-6 18,-7 7,-2 15,-2 25,0 1,0 3,0 6,1 2,1 5,1 8,3 2,1 5,2 8,4 3,1 5,3 7,6 2,2 4,5 5,8 1,3 1,7 0,11 0,5 -2,8 -4,11 -3,3 -6,5 -9,6 -3,1 -7,2 -10,1 -4,0 -6,-2 -9,-3 -2,-2 -3,-3 -4,-5 -2,-2 -3,-3 -3,-4 -1,-1 -2,-2 -3,-2 -1,0 -2,1 -3,3 -2,-2 -2,-3 -3,-5 0,-2 0,-4 1,-6 1,-1 2,-2 3,-3 2,-1 3,-2 5,-1 2,0 4,0 5,1 2,1 3,1 4,1 1,1 2,1 3,1 1,-1 2,-1 3,-3 0,-1 0,-2 0,-4 -1,-1 -2,-3 -4,-4 -1,-1 -3,-2 -5,-3 -3,-1 -5,-2 -7,-2 -5,-1 -10,-1 -13,0 -4,1 -8,3 -11,5 -3,3 -5,6 -8,9 -2,4 -3,8 -5,12 -1,4 -2,8 -3,13 -1,5 -1,9 -1,13 1,4 3,8 5,11 2,3 5,6 9,8 3,2 7,4 11,5 4,2 9,3 13,4 6,1 12,1 17,0 4,-1 8,-3 11,-5 2,-2 4,-5 5,-8 3,3 5,5 7,7 2,3 3,5 4,8 1,3 1,6 0,9 0,2 -1,5 -2,7 -1,3 -3,5 -5,7 -2,3 -4,4 -7,6 -3,2 -6,3 -10,4 -4,0 -8,0 -13,-1 -3,0 -5,-1 -7,-1 -2,-1 -4,-2 -6,-2 -2,-1 -4,-2 -7,-2 -2,0 -5,-1 -8,-1 -4,0 -7,0 -11,0 -3,0 -7,-1 -9,-2 -5,-3 -9,-6 -12,-9 -3,-4 -6,-8 -7,-12 -2,-5 -3,-10 -4,-14 -1,-5 -1,-10 -1,-14 0,-4 1,-8 1,-12zm194 45l-2 -44 -2 -58c0,-2 -1,-4 -2,-6 -2,-1 -4,-2 -6,-3 -2,-1 -4,-2 -7,-3 -2,-1 -4,-2 -6,-3 -1,-2 -3,-3 -3,-5 0,-2 1,-3 2,-4 1,-2 3,-3 6,-4 2,-1 5,-1 8,-2 3,-1 6,-1 9,-2 3,0 6,0 9,0l67 -3c6,0 11,0 14,0 4,1 7,1 9,2 3,1 4,2 5,3 1,1 1,3 1,5 0,2 0,4 -2,7 -2,2 -4,4 -7,7 -3,2 -6,5 -10,7 -4,3 -7,5 -11,7 -4,3 -8,5 -12,7 -3,2 -6,4 -9,5 -3,2 -5,3 -7,4 -3,2 -6,3 -7,5 -1,2 -1,3 0,3 1,1 3,0 5,-1 2,-1 5,-2 8,-4 3,-1 6,-1 10,-2 3,-1 7,0 10,0 4,1 7,2 9,5 3,2 5,6 6,10 0,2 -1,4 -1,6 0,2 -1,4 -3,6 -1,1 -3,2 -5,3 0,-2 -1,-4 -2,-5 -2,-1 -4,-2 -6,-2 -2,0 -4,1 -7,2 -2,2 -4,3 -6,4 -3,0 -5,1 -7,2 -3,0 -5,0 -8,1 -3,0 -6,-1 -8,-2 -3,-1 -5,-2 -6,-3 -2,-2 -3,-4 -4,-6 0,-1 -1,-3 -1,-5 0,-3 1,-5 2,-7 1,-2 2,-4 3,-6 2,-2 4,-4 5,-6 2,-2 4,-4 7,-6 3,-2 6,-4 9,-6 3,-2 6,-5 8,-7 3,-2 5,-4 7,-6 2,-2 3,-3 3,-5 -1,-2 -1,-3 -3,-4 -1,-1 -3,-2 -5,-3 -2,0 -4,-1 -6,-1 -3,0 -5,0 -7,0 -2,0 -5,0 -7,1 -3,0 -5,1 -7,3 -2,1 -3,3 -3,5l1 28c-3,2 -6,5 -8,9 -2,3 -3,6 -3,9 -1,4 0,7 1,10 2,4 5,7 9,10l1 34c1,3 2,6 4,8 2,2 5,3 8,4 3,1 7,1 11,1 4,1 8,1 11,0 4,0 7,0 10,0 3,0 6,0 9,0 3,-1 5,-1 8,-2 2,-1 4,-2 6,-3 2,-2 3,-4 4,-7 3,1 5,2 7,3 2,2 3,4 5,6 1,3 1,6 2,11 -1,5 -2,9 -4,13 -3,3 -6,6 -10,7 -4,2 -9,3 -14,4 -5,0 -11,1 -16,1 -6,0 -12,-1 -18,-1 -6,0 -12,0 -17,0 -3,0 -7,1 -11,1 -3,0 -7,0 -11,1 -5,0 -9,0 -13,0 -4,0 -7,-1 -11,-1 -3,-1 -6,-1 -8,-3 -2,-1 -4,-3 -5,-5 0,-1 1,-2 1,-3 1,-1 3,-2 5,-3 1,-1 3,-2 5,-3 3,-1 5,-3 7,-4 1,-1 3,-3 5,-5 1,-2 2,-4 2,-6zm123 -38c0,-4 1,-9 1,-14 1,-5 2,-10 4,-16 1,-5 3,-10 6,-14 3,-5 7,-8 12,-12 4,-3 10,-5 16,-6 4,0 7,0 9,0 3,1 6,2 8,3 3,1 5,3 7,4 3,1 4,2 6,3 2,1 4,1 5,1 -1,-2 -2,-3 -3,-4 -2,-1 -3,-1 -5,-2 -2,0 -2,-1 -3,-2 0,-1 0,-3 2,-4 1,-1 3,-2 7,-2l34 -6c3,0 6,0 7,1 2,1 3,2 3,3 0,1 -1,3 -2,4 0,1 -2,2 -3,3 -2,0 -3,1 -4,2 -1,0 -1,1 -2,2 0,1 0,2 0,4l18 112c3,-1 6,-2 9,-2 2,0 4,1 6,2 2,2 2,4 3,7 0,3 -1,6 -2,9 -2,-1 -3,-2 -4,-2 -1,0 -2,1 -3,2 -1,2 -2,3 -3,5 -1,2 -2,4 -3,7 -1,1 -2,2 -3,4 -1,1 -2,2 -4,3 -1,1 -4,2 -6,2 -5,1 -9,0 -12,-4 -3,-3 -5,-8 -6,-15l-5 -27c-2,3 -5,6 -9,7 -5,2 -10,4 -16,5 -10,1 -18,1 -25,-1 -7,-2 -13,-5 -18,-10 -5,-5 -10,-11 -13,-18 -5,-11 -8,-22 -9,-34zm84 13l-8 -53c-3,0 -5,0 -7,0 -2,-1 -4,-1 -6,-2 -1,-1 -3,-2 -4,-3 -2,0 -3,-1 -5,-2 -2,0 -4,0 -7,0 -5,1 -9,4 -13,8 -3,4 -6,9 -7,15 -1,7 -1,14 0,23 1,5 2,9 4,13 2,3 5,7 7,9 3,2 6,4 9,6 2,1 5,2 8,3 2,0 5,0 6,0 4,0 7,-1 10,-2 3,-2 6,-4 8,-7 2,-2 4,-5 5,-8zm72 -6l-19 -70c-1,-1 -2,-2 -3,-3 -1,-1 -3,-2 -4,-2 -2,0 -3,-1 -4,-1 -2,0 -4,0 -4,-1 -1,-1 -1,-2 -1,-3 1,-1 2,-2 4,-3l30 -8c2,-1 4,-1 5,-1 1,0 2,1 3,2 0,1 1,2 1,4 1,2 1,4 2,7l17 63c0,1 1,2 1,4 1,1 2,2 3,3 1,2 2,2 3,3 2,0 4,0 7,-1 2,-1 5,-2 7,-3 3,-1 5,-3 7,-4 2,-2 4,-3 6,-5 1,-1 3,-2 4,-2l-18 -66c0,-2 -1,-3 -2,-3 -1,-1 -2,-1 -3,-2 -2,0 -4,-1 -6,-2 -2,-1 -3,-1 -3,-2 0,-2 0,-3 2,-4 1,-1 3,-2 6,-3l37 -10c2,0 4,0 6,0 1,0 2,1 2,2 0,1 0,3 -1,4 -1,1 -1,2 -2,3 -1,1 -2,2 -3,3 -1,1 -2,2 -2,3 -1,1 -1,3 -1,4l22 79c0,2 1,3 2,4 1,0 2,1 3,1 1,1 2,1 4,2 2,0 3,1 4,2 1,1 1,2 1,4 0,1 0,2 -1,3 -1,1 -3,2 -5,2 -1,1 -3,1 -5,1 -3,1 -5,1 -7,1 -3,1 -5,1 -7,2 -3,0 -5,1 -6,2 -2,1 -4,1 -5,2 -2,1 -4,2 -6,2 -3,1 -5,1 -6,1 -2,-1 -3,-1 -3,-3 -1,-1 0,-3 1,-5 1,-1 2,-3 3,-4 1,-2 2,-3 3,-4 1,-2 2,-4 2,-5 -3,0 -6,2 -8,4 -1,2 -3,4 -4,6 -2,2 -3,5 -5,7 -1,3 -3,5 -6,7 -3,2 -6,4 -11,5 -2,1 -4,1 -7,2 -2,0 -5,1 -8,0 -3,0 -6,-1 -9,-2 -2,-2 -5,-4 -7,-8 -3,-3 -5,-8 -6,-14zm84 -146c-1,-2 -1,-4 -1,-6 1,-2 2,-4 4,-6 2,-2 5,-3 10,-5 1,-1 2,-1 4,-2 2,-1 4,-1 6,-1 1,0 3,0 5,1 1,1 3,3 4,5 1,3 1,5 0,7 -1,2 -2,4 -4,5 -2,2 -4,3 -7,5 -3,1 -5,2 -8,2 -3,1 -5,1 -8,0 -2,-1 -4,-2 -5,-5zm52 117l-34 -80c-3,1 -7,1 -9,0 -3,0 -5,-1 -6,-2 -1,-2 -1,-3 -1,-5 1,-1 3,-3 6,-4l34 -15c4,-1 7,-2 9,-2 2,0 4,1 5,2 0,2 0,4 -1,6 -2,2 -4,5 -8,8l33 79c0,0 1,1 2,1 1,1 2,1 4,1 1,0 2,1 4,1 1,0 2,0 4,1 2,0 4,1 4,2 1,1 1,3 -1,5 -1,2 -2,3 -4,5 -2,1 -4,2 -6,3 -2,1 -4,2 -6,2 -2,1 -4,2 -6,3 -3,1 -5,2 -7,3 -2,1 -4,2 -6,3 -2,1 -4,1 -6,2 -1,0 -3,0 -4,-1 -2,0 -3,0 -5,-1 -1,-1 -1,-1 -2,-2 0,-1 1,-3 2,-4 1,-1 1,-2 2,-3 1,-1 1,-2 2,-3 0,-2 1,-3 1,-5zm89 11l-61 -107c-1,-2 -2,-2 -3,-3 -2,0 -3,0 -4,0 -2,0 -4,0 -6,0 -2,0 -4,-1 -4,-2 -1,-1 -1,-3 0,-4 1,-2 3,-4 6,-6l28 -16c3,-2 5,-2 6,-2 2,0 3,1 3,2 0,1 0,2 -1,4 0,1 -1,2 -1,3 -1,2 -1,3 -1,4 0,2 0,3 1,4 1,-1 1,-3 2,-5 1,-2 2,-5 2,-7 1,-3 2,-5 4,-8 1,-2 3,-5 5,-7 3,-3 5,-5 9,-7 7,-4 15,-6 23,-6 7,0 15,3 23,9 8,6 16,14 23,26 5,8 8,16 9,24 2,8 2,16 1,24 -1,7 -3,14 -7,19 -4,6 -9,10 -15,13 -6,4 -12,6 -17,7 -6,0 -10,-1 -14,-3 -5,-2 -8,-6 -11,-11 0,-1 -1,-2 -1,-4 0,-2 0,-3 0,-5 0,-2 0,-4 0,-5 -1,-2 -1,-4 -2,-5 -1,-2 -2,-3 -4,-4 2,-1 4,-2 7,-3 2,0 4,-1 7,0 2,0 5,2 7,4 1,1 2,1 3,2 1,1 2,1 2,1 1,0 2,0 4,0 1,-1 2,-2 4,-3 4,-2 7,-5 8,-9 2,-3 3,-7 3,-11 0,-4 -1,-8 -2,-12 -1,-5 -3,-9 -6,-13 -3,-5 -6,-9 -10,-12 -3,-3 -7,-5 -11,-7 -3,-1 -7,-1 -10,-1 -4,1 -7,2 -10,3 -2,2 -5,4 -7,7 -3,3 -5,6 -7,9 -2,3 -3,7 -4,10l25 44c-1,2 -1,5 0,8 0,3 1,6 3,9 1,3 3,5 6,7 2,2 5,4 8,4l14 25c1,1 2,2 3,2 1,0 3,0 4,0 2,0 3,0 4,0 3,0 5,1 6,2 1,1 1,3 1,5 0,2 -2,4 -3,6 -2,1 -4,3 -6,4 -2,1 -4,2 -6,3 -2,1 -4,2 -6,3 -1,0 -2,1 -3,3 -2,1 -3,2 -5,3 -2,1 -4,2 -6,3 -2,1 -4,1 -7,1 -2,0 -3,0 -5,0 -1,-1 -2,-2 -3,-3 0,-2 0,-3 1,-5 1,-2 2,-4 3,-5 1,-1 1,-3 2,-4 0,0 0,-1 -1,-2z"/>
   <path class="fil3" d="M14881 8506l-49 -60c-1,-2 -3,-3 -5,-4 -1,0 -3,-1 -5,0 -3,0 -5,-1 -7,-1 -2,0 -3,0 -4,-1 -1,-1 -1,-2 0,-4 0,-1 1,-2 3,-4l33 -26c2,-2 4,-3 5,-3 2,0 3,1 3,2 1,2 1,4 0,6 0,2 -1,4 -1,5 -1,2 -1,3 -1,5 0,1 1,2 2,4 2,-3 3,-6 4,-9 1,-3 2,-6 2,-8 1,-3 2,-6 3,-9 1,-3 3,-6 5,-10 3,-3 6,-6 10,-9 4,-3 7,-5 11,-6 3,-1 6,-1 9,0 3,1 6,3 8,6 2,-1 3,-3 4,-5 1,-2 3,-5 4,-8 1,-3 2,-7 3,-10 2,-4 3,-7 5,-11 2,-3 5,-6 8,-9 4,-3 8,-6 12,-7 4,-1 8,-1 11,1 4,1 8,4 12,9l47 59c1,1 2,1 4,1 1,0 3,0 4,0 2,0 4,0 5,0 3,0 4,0 5,1 1,1 1,2 1,3 0,1 0,2 0,3 -1,2 -1,3 -2,4 0,1 -1,3 -2,3 -1,1 -2,2 -3,3 -1,1 -3,1 -4,2 -2,1 -4,3 -6,4 -2,2 -4,4 -5,5 -2,2 -3,3 -4,5 -2,1 -3,2 -4,3 -2,1 -3,2 -5,2 -3,1 -5,1 -7,0 -1,-1 -2,-2 -3,-3 -1,-2 0,-3 0,-6 1,-1 1,-2 2,-4 1,-1 1,-2 1,-4 0,-1 0,-3 -1,-4l-39 -48c-1,-2 -3,-4 -4,-5 -2,-1 -3,-1 -5,-2 -2,0 -3,0 -5,1 -1,0 -3,1 -4,2 -2,1 -3,3 -4,5 -1,2 -3,4 -4,7 -1,2 -2,4 -3,6 -1,2 -3,4 -4,6l44 54c1,1 3,1 4,1 1,0 2,0 3,0 2,-1 3,-1 5,0 2,0 3,0 4,1 1,1 1,2 2,3 0,2 -1,4 -2,6 -1,2 -2,3 -3,5 -1,1 -3,2 -4,3 -1,0 -3,1 -4,2 -2,1 -3,2 -5,3 -1,1 -3,3 -5,5 -2,1 -4,3 -6,5 -2,2 -4,3 -7,5 -2,1 -4,1 -6,0 -1,0 -2,-2 -3,-3 -1,-2 -1,-4 0,-6 1,-2 2,-3 2,-5 1,-1 1,-2 1,-4 0,-1 -1,-2 -2,-4l-39 -48c-2,-2 -4,-4 -6,-5 -2,-1 -3,-1 -5,-1 -2,1 -3,2 -5,3 -2,2 -3,3 -4,5 -2,2 -3,5 -5,7 -1,2 -3,5 -4,7 -2,2 -3,4 -5,5l42 52c2,2 3,3 5,3 1,1 2,0 4,0 1,-1 3,-1 4,-1 3,-1 5,-1 6,0 1,1 2,2 2,4 0,2 0,4 -2,7 0,1 -1,3 -3,4 -1,2 -3,3 -4,4 -2,0 -3,1 -5,2 -1,1 -3,2 -4,3 -2,2 -3,3 -5,5 -2,1 -4,3 -6,5 -2,2 -4,3 -6,4 -3,1 -5,2 -7,2 -1,-1 -3,-1 -3,-3 -1,-1 -1,-3 0,-5 1,-2 1,-4 2,-5 1,-2 1,-3 1,-4 0,-1 -1,-3 -2,-4zm122 -152c-7,-6 -13,-12 -18,-19 -5,-7 -8,-15 -10,-22 -2,-8 -2,-15 0,-22 1,-7 4,-14 9,-20l20 -25c4,-5 7,-8 10,-10 4,-2 6,-3 9,-4 2,0 5,0 7,1 2,1 4,2 6,3 2,2 4,4 5,7 2,2 3,6 3,9 1,4 1,9 0,14 0,3 -1,5 -2,8 0,3 -1,7 -2,11 -1,3 -2,7 -3,12 0,4 -1,8 -1,12 0,4 0,8 1,12 1,4 3,8 5,11 5,-2 9,-4 13,-7 3,-3 7,-6 10,-9 3,-4 5,-8 6,-12 2,-3 3,-7 3,-10 0,-3 0,-6 -1,-8 -1,-3 -2,-5 -3,-6 2,-1 5,-2 7,-3 3,0 6,-1 8,0 3,0 6,2 10,5 1,1 3,2 4,4 2,2 4,4 5,7 2,3 3,6 3,9 1,3 0,6 0,10 -1,4 -4,8 -7,11 -2,3 -3,5 -5,6 -2,2 -4,4 -5,5 -2,2 -3,3 -5,5 -1,2 -2,3 -3,5 -1,2 -3,4 -4,7 -2,2 -4,5 -6,8 -3,3 -6,6 -10,8 -4,1 -9,2 -14,3 -5,0 -10,0 -15,-1 -5,-1 -10,-3 -15,-5 -5,-3 -10,-6 -15,-10zm26 -20c-3,-5 -5,-9 -6,-14 -1,-4 -2,-9 -1,-13 0,-5 1,-9 2,-14 1,-4 2,-8 2,-12 1,-3 1,-7 0,-10 -1,-3 -3,-5 -6,-7 -2,-2 -4,-3 -6,-3 -2,1 -4,1 -6,3 -1,1 -3,3 -5,4 -2,2 -3,4 -5,6 -3,4 -6,9 -7,13 -1,4 -1,8 -1,12 1,4 2,7 4,11 2,3 4,6 6,8 3,3 5,6 8,8 2,2 5,3 7,4 3,2 6,2 8,3 2,1 4,1 6,1zm94 -78l-71 -33c-2,-1 -3,-1 -5,-1 -1,0 -3,1 -4,1 -2,1 -3,1 -4,2 -1,1 -2,2 -4,2 -1,1 -2,1 -4,0 -1,0 -2,-1 -2,-2 -1,-2 0,-4 1,-6l17 -36c1,-3 2,-5 3,-6 2,-1 3,-2 4,-1 1,0 1,0 2,2 1,1 1,2 1,4 1,2 1,4 1,6 0,2 0,3 1,4 0,1 1,2 3,2 1,-3 1,-5 1,-8 -1,-2 -1,-4 -2,-7 -1,-2 -2,-5 -3,-8 -1,-3 -1,-6 -1,-10 0,-4 2,-8 4,-14 2,-4 5,-9 9,-12 3,-3 7,-5 12,-5 5,-1 11,0 18,3l64 30c2,0 3,0 4,0 2,-1 3,-2 4,-3 1,-1 3,-2 5,-3 1,-1 3,-1 5,-1 1,1 2,2 3,4 0,2 0,5 0,9 0,2 -1,4 -2,5 0,2 -1,4 -2,6 -2,1 -3,3 -4,6 -1,2 -2,4 -3,7 -1,2 -2,5 -3,7 -1,2 -3,4 -5,6 -9,0 -4,3 -6,3 -1,-1 -3,-1 -3,-2 -1,-1 -2,-2 -2,-4 0,-2 0,-4 0,-6 -1,-2 -1,-3 -3,-5l-60 -28c-4,-2 -6,-2 -9,-1 -2,1 -5,4 -7,8 -1,2 -1,4 -1,6 -1,3 -1,5 -1,7 1,2 1,4 1,7 -1,2 -1,5 -2,8l64 30c1,-1 2,-1 3,-2 1,-1 3,-2 4,-3 1,-1 3,-1 4,-2 2,-1 4,-1 5,0 1,0 2,1 2,2 1,1 1,2 1,3 0,2 0,3 0,5 -1,2 -1,4 -2,6 -1,3 -2,5 -4,6 -1,2 -2,4 -2,6 -1,1 -2,3 -3,5 0,2 -1,4 -2,7 -1,2 -2,4 -4,6 -1,1 -2,2 -4,3 -1,1 -2,2 -4,2 -1,0 -2,0 -3,-1 -1,-1 -2,-2 -3,-5 0,-2 0,-4 0,-5 0,-2 0,-3 0,-4 -1,-1 -1,-2 -2,-2zm50 -129l-77 -20c0,0 -1,1 -2,2 0,0 -1,1 -2,2 -1,1 -2,2 -3,3 -1,1 -2,1 -3,1 -1,0 -2,0 -3,0 0,-1 -1,-2 -1,-3 -1,-2 -1,-4 0,-6 0,-1 0,-3 1,-5 -2,0 -3,-1 -5,-1 -1,0 -3,0 -4,1 -1,0 -2,1 -3,3 0,1 -1,1 -2,2 -1,1 -2,1 -3,1 -2,0 -3,0 -4,-1 -1,-1 -1,-3 -2,-5 0,-2 0,-4 0,-6 -1,-2 -1,-5 -2,-7 0,-3 -1,-6 -2,-8 -1,-3 -1,-5 -2,-7 -1,-2 -1,-3 -2,-4 -1,-3 -2,-4 -2,-6 1,-2 1,-3 2,-3 1,-1 2,-1 3,-1 1,0 2,1 3,2 1,1 2,2 3,3 1,1 2,2 4,2 1,1 3,1 4,2l25 6c-1,-2 -1,-4 -1,-6 0,-3 0,-5 0,-8 1,-3 1,-5 2,-7 1,-2 2,-4 4,-5 1,-1 3,-2 6,-1 2,1 4,1 6,2 1,1 2,2 4,3 1,1 2,2 3,3 1,1 3,1 5,1 2,1 4,0 8,0 1,2 2,4 2,6 0,3 -1,5 -1,7 -1,2 -2,3 -4,5 -1,1 -3,2 -5,2 -1,1 -3,1 -5,0 -1,0 -3,0 -5,-1 -2,-1 -4,-2 -6,-3 0,1 0,2 0,3 -1,1 -1,1 -1,2l77 21c1,0 2,0 3,-1 2,-1 3,-2 4,-3 1,-1 1,-2 2,-3 2,-2 3,-3 5,-3 1,-1 2,0 3,1 1,1 2,2 3,3 0,2 1,4 1,6 0,2 0,3 0,5 -1,2 -1,5 -2,7 0,3 -1,6 -2,9 -1,4 -2,7 -3,9 0,3 -1,5 -2,7 -1,1 -1,3 -3,5 -1,2 -3,3 -5,3 -1,1 -3,1 -4,0 -1,-1 -1,-2 -1,-4 -1,-3 -1,-6 -3,-8 -1,-2 -3,-3 -6,-4zm-60 -80c-2,0 -4,-1 -5,-2 -2,-2 -4,-4 -5,-7 -1,-2 -2,-6 -3,-11 0,-4 0,-10 1,-16l6 -50c0,-3 1,-6 2,-8 1,-3 3,-4 5,-5 2,-2 4,-2 7,-2 3,1 6,1 7,2 2,1 3,3 3,4 0,2 0,4 0,6 0,3 -1,6 -2,7 -1,2 -2,2 -4,3 -1,0 -2,0 -3,1 -2,0 -3,0 -4,1 -1,0 -1,1 -2,3l-3 27c0,2 0,4 0,5 0,2 1,3 2,4 1,2 2,2 4,3 2,0 3,-1 5,-3 2,-2 3,-4 5,-7 2,-3 3,-7 5,-10 2,-4 4,-8 6,-12 2,-4 4,-7 6,-11 4,-5 8,-10 13,-14 4,-5 10,-7 16,-9 6,-2 13,-3 21,-2 6,1 11,3 16,5 4,2 7,5 10,9 3,3 5,7 6,12 1,4 1,8 0,13 0,2 0,5 -1,7 -1,3 -1,5 -2,8 0,3 -1,6 -1,10 -1,3 -1,7 -1,10 0,3 0,7 0,10 -1,3 -1,6 -1,9 -1,4 -2,8 -4,11 -2,3 -5,6 -8,8 -3,2 -6,3 -9,4 -4,1 -7,1 -9,0 -3,0 -6,-1 -8,-2 -1,-1 -3,-2 -5,-3 -1,-2 -3,-3 -5,-4 -1,-1 -3,-2 -5,-3 -3,-1 -5,-1 -9,0 0,-4 1,-7 2,-11 0,-3 2,-6 3,-8 2,-2 4,-4 6,-5 3,-1 6,-2 9,-1 2,0 3,0 5,0 1,-1 2,-1 3,-3 1,-1 2,-3 3,-5 1,-3 1,-6 2,-11 0,-2 0,-5 0,-7 0,-3 0,-6 -1,-8 0,-3 -1,-5 -3,-7 -1,-1 -3,-2 -6,-3 -2,0 -4,0 -6,0 -2,1 -4,2 -6,3 -2,2 -5,4 -7,8 -3,2 -5,5 -7,9 -3,4 -5,8 -8,12 -2,5 -5,9 -8,13 -3,5 -6,9 -9,12 -3,4 -6,6 -9,8 -4,2 -7,3 -10,3z"/>
  </g>
 </g>
</svg>
