<?xml version="1.0" standalone="no"?>
<!DOCTYPE svg PUBLIC "-//W3C//DTD SVG 20010904//EN"
 "http://www.w3.org/TR/2001/REC-SVG-20010904/DTD/svg10.dtd">
<svg version="1.0" xmlns="http://www.w3.org/2000/svg"
 width="219.000000pt" height="156.000000pt" viewBox="0 0 219.000000 156.000000"
 preserveAspectRatio="xMidYMid meet">

<g transform="translate(0.000000,156.000000) scale(0.100000,-0.100000)"
fill="#000000" stroke="none">
<path d="M0 1125 c0 -435 0 -435 20 -415 25 25 45 25 70 0 16 -16 18 -25 10
-40 -14 -26 -30 -26 -30 1 0 12 -5 19 -13 16 -16 -5 -10 -39 10 -54 24 -19 51
2 58 45 16 97 46 109 71 27 10 -30 15 -57 13 -59 -3 -3 -15 -2 -28 1 -23 6
-23 7 -6 19 16 12 17 17 5 41 -12 26 -13 27 -21 8 -4 -11 -8 -32 -8 -46 -1
-15 -11 -38 -22 -53 -17 -22 -28 -27 -58 -24 -30 2 -39 9 -53 38 -16 34 -17
23 -18 -297 l0 -333 671 0 c608 0 671 1 665 16 -3 9 -6 19 -6 24 0 5 -15 6
-33 3 -28 -4 -37 -1 -55 22 -38 48 -22 114 29 120 13 2 37 6 53 10 18 5 27 4
23 -2 -10 -16 15 -137 31 -146 11 -7 10 -12 -4 -28 -17 -19 -10 -19 399 -19
l417 0 -2 433 c0 237 -3 418 -5 400 -5 -36 -25 -48 -53 -30 -25 15 -25 27 0
34 22 6 27 37 8 49 -7 4 -18 -2 -27 -17 -9 -13 -26 -34 -37 -46 -17 -17 -19
-23 -8 -27 7 -3 11 -12 8 -19 -4 -10 5 -17 31 -21 19 -4 40 -4 45 -1 6 3 10
-5 10 -19 0 -29 -16 -42 -33 -28 -7 6 -39 15 -71 21 -67 12 -61 9 -70 38 -6
18 -4 21 15 16 28 -8 39 11 39 67 0 44 13 80 25 69 3 -4 1 -19 -5 -34 -12 -32
-3 -49 11 -22 6 9 21 29 34 45 21 25 26 26 54 15 l31 -11 0 324 0 324 -1095 0
-1095 0 0 -435z m1230 411 c377 -57 649 -276 693 -555 32 -208 -98 -435 -317
-555 -27 -15 -52 -23 -55 -18 -3 5 -19 17 -36 26 -16 10 -23 15 -13 12 28 -8
27 4 -3 34 -16 16 -29 37 -29 47 0 15 -2 16 -10 3 -8 -13 -10 -13 -10 -1 0 8
-9 24 -20 36 l-21 22 40 26 c23 15 42 27 45 27 11 0 15 -54 7 -90 -7 -33 -6
-44 8 -62 22 -26 75 -29 99 -4 25 24 24 157 -1 213 l-19 40 35 49 c67 95 88
223 52 329 -65 190 -312 358 -595 406 -41 6 -79 16 -84 21 -16 13 130 9 234
-6z m-671 -133 c-8 -9 -9 -14 -3 -10 6 3 24 -12 40 -34 16 -21 46 -58 66 -82
39 -43 45 -57 28 -57 -22 0 -176 -167 -202 -220 -81 -162 -48 -323 96 -465
112 -110 288 -194 482 -229 l79 -14 -113 -1 c-166 -1 -287 26 -437 100 -265
130 -408 356 -374 593 22 158 133 315 284 401 69 40 72 41 54 18z m1515 -714
c25 -11 51 -17 56 -14 13 8 13 -11 -1 -36 -10 -20 -10 -20 -38 0 -15 11 -39
23 -54 26 -24 6 -27 4 -27 -17 0 -19 8 -27 38 -38 20 -8 43 -13 50 -12 15 3
15 0 0 -33 -11 -25 -28 -34 -28 -14 0 14 -87 52 -101 43 -7 -4 -7 -10 -1 -16
6 -6 8 -31 5 -59 -3 -28 -2 -49 4 -49 15 0 33 23 33 43 0 12 6 17 18 15 46 -9
-1 -100 -53 -100 -28 0 -72 36 -75 62 -5 33 1 47 30 77 16 16 34 42 40 57 5
15 14 25 19 22 5 -4 7 3 4 14 -5 19 11 50 27 50 4 0 28 -9 54 -21z m-1864
-111 c24 -26 26 -54 4 -62 -21 -8 -34 1 -34 24 0 13 5 17 15 14 11 -5 13 -2 9
10 -12 32 -84 11 -84 -25 0 -11 12 -31 26 -44 26 -24 25 -45 -1 -45 -23 0 -65
53 -65 82 0 58 89 90 130 46z m104 -80 c-3 -5 -12 -4 -20 3 -7 6 -11 15 -8 21
3 5 12 4 20 -3 7 -6 11 -15 8 -21z m-24 -30 c0 -4 -5 -8 -11 -8 -16 0 -79 -54
-79 -67 0 -7 -4 -13 -8 -13 -10 0 -47 39 -41 43 2 1 17 9 33 17 15 8 38 27 50
41 19 24 23 25 39 11 9 -8 17 -19 17 -24z m1626 -45 c34 -36 41 -50 33 -60
-12 -14 -41 -18 -36 -5 3 11 -49 72 -61 72 -6 0 -13 -7 -16 -16 -6 -17 40 -81
56 -76 13 4 9 -10 -9 -30 -19 -22 -33 -23 -33 -4 0 8 -12 28 -26 46 -21 24
-29 28 -40 19 -22 -18 -17 -34 20 -67 33 -28 34 -31 17 -46 -21 -19 -31 -20
-31 -5 0 15 -62 85 -72 81 -13 -4 -9 10 9 30 9 10 21 18 27 18 6 0 17 9 24 21
8 12 19 18 28 15 9 -3 20 6 29 24 9 17 20 30 27 30 6 0 30 -21 54 -47z m-1557
-9 c32 -27 41 -53 19 -55 -7 -1 -35 -1 -63 1 l-50 2 19 -21 c11 -12 28 -21 38
-21 16 0 17 -3 8 -20 -14 -27 -30 -25 -68 6 -40 34 -41 66 -3 105 36 36 60 37
100 3z m97 -71 c24 -16 45 -34 48 -41 3 -8 -8 -33 -25 -58 -16 -24 -27 -49
-24 -54 10 -17 -12 -11 -36 10 -13 10 -19 19 -12 20 12 0 63 67 63 82 0 5 -10
8 -23 8 -25 0 -72 -53 -62 -70 11 -19 -22 -10 -40 10 -14 15 -15 20 -4 20 15
0 66 75 62 91 -5 15 7 11 53 -18z m1237 -25 c55 -29 64 -93 20 -127 -27 -20
-27 -21 -9 -36 21 -16 21 -17 -8 -32 -16 -9 -23 -3 -49 48 -17 32 -39 68 -50
79 -10 12 -17 23 -16 24 12 9 84 56 87 56 2 0 13 -5 25 -12z m-1103 -13 c-16
-19 -6 -45 17 -45 20 -1 75 -29 57 -30 -13 0 -44 -71 -44 -100 0 -23 0 -23
-36 -10 -23 9 -25 12 -12 23 16 12 38 68 38 95 0 12 -4 12 -20 -3 -19 -17 -20
-17 -20 1 -1 24 -39 -42 -40 -68 0 -10 -6 -18 -13 -18 -17 0 -56 29 -40 30 14
0 53 70 53 95 0 8 5 15 11 15 5 0 8 4 4 9 -4 8 8 13 49 20 5 0 3 -6 -4 -14z
m945 -16 c-8 -12 -35 -12 -35 0 0 11 22 20 33 14 4 -2 5 -9 2 -14z m-865 -9
c0 -5 -9 -10 -20 -10 -11 0 -20 5 -20 10 0 6 9 10 20 10 11 0 20 -4 20 -10z
m88 -6 c35 -10 28 -37 -8 -32 -34 5 -41 -7 -10 -17 22 -7 27 -25 7 -25 -14 0
-37 -61 -37 -99 0 -19 -4 -21 -22 -15 -13 3 -24 7 -25 8 -2 1 7 27 18 57 16
41 18 58 10 71 -7 12 -8 18 -1 18 5 0 9 3 9 8 -5 32 10 39 59 26z m802 -17 c0
-8 11 -35 25 -62 26 -52 25 -60 -3 -67 -14 -4 -21 7 -36 54 -10 32 -22 58 -27
58 -16 0 -9 18 9 23 29 8 32 7 32 -6z m-720 -27 c0 -5 -9 -10 -20 -10 -11 0
-20 5 -20 10 0 6 9 10 20 10 11 0 20 -4 20 -10z m656 2 c-7 -12 22 -104 35
-113 6 -3 -3 -11 -21 -18 -29 -9 -31 -9 -25 6 4 13 -1 11 -19 -6 -34 -32 -51
-22 -71 41 -10 29 -23 56 -29 60 -8 6 -8 8 1 8 6 0 18 3 27 6 12 4 18 -5 27
-41 12 -47 32 -66 50 -48 13 13 -9 93 -25 94 -14 1 24 17 42 18 7 1 11 -3 8
-7z m-306 -15 c0 -12 -49 -47 -66 -47 -4 0 1 9 11 20 18 19 17 20 -4 20 -26 0
-40 -28 -20 -41 8 -5 23 -8 34 -6 11 1 21 -5 23 -14 2 -10 -3 -17 -10 -16 -48
2 -55 -3 -50 -34 4 -31 6 -31 48 -26 49 5 67 -9 39 -30 -22 -15 -145 -18 -145
-3 0 6 5 10 10 10 6 0 10 30 10 69 0 51 -4 72 -16 82 -14 12 -14 14 3 20 33
13 133 10 133 -4z m-355 -27 c3 -5 2 -10 -3 -10 -11 0 -34 -98 -26 -111 3 -5
-6 -9 -20 -9 -14 0 -28 5 -31 10 -3 6 -2 10 2 10 10 0 35 99 27 111 -3 5 6 9
20 9 14 0 28 -4 31 -10z m129 -20 c5 -5 6 -16 2 -25 -7 -19 -37 -16 -44 4 -3
8 0 11 7 7 6 -4 11 -2 11 3 0 16 -36 13 -49 -3 -7 -8 -11 -27 -9 -43 3 -26 6
-28 46 -28 37 0 42 -3 40 -20 -2 -15 -12 -21 -40 -23 -46 -4 -74 10 -80 40 -7
37 10 84 34 96 24 11 66 7 82 -8z"/>
<path d="M1920 531 c-8 -15 -8 -27 0 -41 17 -32 35 -24 35 17 0 42 -18 54 -35
24z"/>
<path d="M286 401 c-16 -18 -16 -19 19 -23 47 -5 67 7 41 27 -26 20 -39 19
-60 -4z"/>
<path d="M1641 286 c-16 -19 4 -53 36 -59 27 -5 33 0 33 28 0 40 -45 60 -69
31z"/>
<path d="M1253 154 c-11 -30 10 -69 37 -69 29 0 35 19 21 58 -12 30 -48 37
-58 11z"/>
</g>
</svg>
